PathFileType	4	(X/Y/Z)	Patient4_TMGait_0pt2_01_left_14.trc.trc
DataRate	CameraRate	NumFrames	NumMarkers	Units	OrigDataRate	OrigDataStartFrame	OrigNumFrames
43.613707165109	43.613707165109	6	33	mm	43.613707165109	18	       141
Frame#	Time	Sacral			L.Shoulder			Chest			R.Shoulder			Neck			R.ASIS			L.ASIS			R.Thigh.Superior			R.Thigh.Lateral			R.Thigh.Inferior			R.Patella			L.Thigh.Superior			L.Thigh.Lateral			L.Thigh.Inferior			L.Patella			L.Shank.Superior			L.Shank.Lateral			L.Shank.Inferior			R.Shank.Superior			R.Shank.Lateral			R.Shank.Inferior			R.Heel			R.Midfoot.Superior			R.Midfoot.Lateral			R.Toe			L.Heel			L.Midfoot.Lateral			L.Midfoot.Superior			L.Toe			L.Elbow			L.Wrist			R.Elbow			R.Wrist			
		X1	Y1	Z1	X2	Y2	Z2	X3	Y3	Z3	X4	Y4	Z4	X5	Y5	Z5	X6	Y6	Z6	X7	Y7	Z7	X8	Y8	Z8	X9	Y9	Z9	X10	Y10	Z10	X11	Y11	Z11	X12	Y12	Z12	X13	Y13	Z13	X14	Y14	Z14	X15	Y15	Z15	X16	Y16	Z16	X17	Y17	Z17	X18	Y18	Z18	X19	Y19	Z19	X20	Y20	Z20	X21	Y21	Z21	X22	Y22	Z22	X23	Y23	Z23	X24	Y24	Z24	X25	Y25	Z25	X26	Y26	Z26	X27	Y27	Z27	X28	Y28	Z28	X29	Y29	Z29	X30	Y30	Z30	X31	Y31	Z31	X32	Y32	Z32	X33	Y33	Z33	

18	32.299785714286	623.528014343929	991.325158872175	616.785732858527	736.399377057335	1420.337678282646	397.614834126493	882.484223211380	1353.398122888269	521.912789522803	854.342079934820	1427.527551254601	712.060283410327	765.877985340717	1483.142517857498	552.192453329826	873.698590570987	925.410966615190	671.736840042046	795.685964775598	958.309041675849	408.344780854712	895.975093300522	722.393186696012	622.165672481770	823.906525311472	607.194803337156	687.204171424167	881.677287065675	560.257645968323	590.695482428224	876.994276788400	464.503555561165	592.556968593326	883.684050630997	777.701139611354	424.711309480465	834.169791405329	647.426904255144	349.185245474319	941.057178603786	589.765459976749	403.356691158233	966.525248736802	519.659656389287	393.425310198977	939.491776997595	446.256279468932	378.375176847701	852.591032480724	331.590243718884	320.954122801803	926.015158540725	216.028102540293	363.411512104681	826.435707039564	380.555425081547	599.952293276853	741.476774775284	289.724410498366	666.500933630412	751.153863111728	194.125871071240	595.342351465681	584.196444384943	46.212055363429	571.108147644750	757.298331291863	94.834928254375	600.927822753634	669.173465148051	37.350707414222	643.045103810185	877.133548313493	39.269759339929	627.935074688543	816.374385351102	49.428141518823	393.544955019586	887.719400294329	47.119769148607	311.301022054164	970.575684037979	112.606409071509	331.952093491635	1097.231157195030	65.654430642852	299.345562948562	587.680669403700	1093.872458867933	336.741206011910	557.884015352779	838.032572718033	384.163869857157	1045.685971526325	1140.161813168177	809.543597259453	1291.890384926890	1144.372980644354	730.943171002699	
19	32.322714285714	623.412236797240	992.531750688276	616.207625352239	735.783568690616	1421.018948852977	396.446065120447	882.612732433402	1353.738655816588	519.767997678554	855.822291005175	1428.010194011211	709.976785311254	766.457122745443	1483.819911137250	550.783362189113	873.586825045900	925.706892127313	670.156453575549	794.480280356323	958.719718446533	407.006009763584	893.389407708327	722.091110731136	621.262703351168	820.159582923381	607.726993469872	686.948490571218	877.151070023151	559.967817637309	590.604600591968	871.513558622079	464.589864360621	592.733467511520	880.141456283571	775.685940871501	422.455929563934	827.196471941000	645.862534311894	348.100875360416	933.833518467993	587.318265660644	401.294986562269	958.650926028719	518.991245975606	392.575706722195	934.738101431123	445.978762799652	377.716005716438	853.286048246005	327.457292955692	319.478913281952	931.107434063876	215.016304468805	363.155309009155	821.219094634936	380.880939093130	600.157407934265	736.306530531560	289.939975868372	666.577058018181	746.246368021093	194.318073994947	595.441350837247	579.516706084762	46.165777118306	571.130013291434	752.594508631009	94.786274353263	600.888866570319	664.501467707008	37.309031698608	643.062917729590	872.464967419522	39.284550580103	627.942639432417	827.423168487512	45.104730119019	392.233045507356	900.218467368945	44.127805682037	311.171355893268	980.774359978862	112.171001036657	332.784451773278	1109.387956621456	68.528325661203	302.764909734503	586.441323274353	1094.647778908978	337.688523779449	556.742372761986	838.947237924600	386.532329600619	1051.161195240071	1143.343972515292	804.072484250443	1295.883811427984	1155.869163521694	722.449866479751	
20	32.345642857143	623.323766855298	993.320202731064	615.099465337431	735.645478055973	1421.240073691647	394.721576988752	882.905597032499	1353.699134999130	517.460831056411	856.976767381717	1428.167612486514	707.623533198406	767.094094908505	1484.130580512055	548.864418477617	873.462392544773	925.726637228711	668.566106110287	793.689477217270	958.683886149866	405.542250862649	891.122750288756	721.591688068286	620.293156600936	816.746587423622	608.015389917828	686.483237657227	873.098450816444	559.490174155107	590.365871590130	866.550350375559	464.414150296125	592.740359252523	877.191321374775	773.327227389083	420.231211480150	820.804335575491	643.960185636334	347.167555347671	927.184359202505	584.595046363913	399.478169136281	951.087893471912	517.719169350658	391.974356738306	929.859525480447	445.150176602407	377.206097532398	852.947320279383	323.720228996368	318.460996531259	934.178453147536	214.044341671284	363.228531001269	816.397312966928	380.952736045515	600.192067043169	731.378477282157	290.050384559395	666.501303380459	741.476634751069	194.359565015774	595.441589277992	574.837860258746	46.076278827475	571.107426735784	747.909334903921	94.761312028399	600.861453661620	659.819513753849	37.266165722404	643.054139009026	867.789250283572	39.306991096397	627.957377436076	835.312721773627	41.913908711735	391.454991073485	909.281351267437	42.072846189997	311.358903690816	987.975757273880	111.898292494690	333.924401341847	1118.019369770299	70.809854895039	305.952535652037	586.301735138564	1094.653465285204	337.656812419235	556.952840528549	839.032129007570	387.717456528663	1055.517798904180	1145.698219009204	798.677168340484	1298.683585023814	1165.373816871979	714.422974028629	
21	32.368571428571	623.292738858595	993.734234244108	613.495353726003	735.941605756889	1421.053129385532	392.463038305686	883.364355828853	1353.332570733568	514.974038221188	857.857424430845	1428.054586643614	705.001555946727	767.787702741818	1484.117318874057	546.448242360746	873.360861582471	925.505121835462	666.929563471642	793.301142522223	958.265933871445	403.929384937582	889.192537224356	720.915202602915	619.215231391496	813.691144462633	608.081372425649	685.782139898842	869.525841565490	558.840336621546	589.939429059467	862.109145797429	463.993340519187	592.541775563579	874.891143475242	770.780105922614	418.035399150706	815.179864416270	641.851123167731	346.333753475616	921.300926580756	581.766989887212	397.880279120016	944.079296813431	515.988920543990	391.542401440371	925.085667317509	443.860378279123	376.778429103606	851.714987288143	320.361077075866	317.836728839963	935.435057788365	212.984345068782	363.544148047906	811.970572773648	380.790725680149	600.032898129363	726.709113856327	290.075118653525	666.273322714637	736.848639235093	194.268188675826	595.340581615434	570.164451041785	45.962973511165	571.046674187391	743.242928677112	94.755923332126	600.839094177087	655.133835664964	37.228468608637	643.022757387292	863.110700177614	39.332128421751	627.978250494565	840.171303721034	39.637986283119	391.174201757402	915.019658716994	40.673221759016	311.797823297085	992.381527416139	111.516171004867	335.262087480573	1123.358762217810	72.132320656851	308.763333476224	587.163576155811	1093.987390930188	336.621646459338	558.376304022905	838.389783621836	387.645173573329	1058.849107994692	1147.277969656328	793.407834738921	1300.468660827287	1172.984626214230	706.851143015247	
22	32.391500000000	623.349879732546	993.852015659994	611.431703141262	736.622221914998	1420.544033965575	389.707721727579	883.991033956927	1352.719123795496	512.289825310486	858.536178887186	1427.749137169914	702.113114899248	768.544580317285	1483.851713610209	543.562858028108	873.314287572135	925.100248851329	665.200282783291	793.293950014320	957.564532343931	402.136746067279	887.590677373904	720.100165858219	617.994348844624	810.982869781382	607.971143081128	684.833160169310	866.402770655135	558.051940814271	589.303633532122	858.153172521240	463.369814830266	592.123876551246	873.274063969542	768.222153859938	415.861254210450	810.498005886626	639.689061695502	345.521412603902	916.356934828227	579.012959988062	396.451524851033	937.862948128491	513.976962183918	391.186569337407	920.656568816834	442.237968285088	376.364032429942	849.820413841259	317.387240502368	317.488705367095	935.178418588261	211.773931608391	363.997202330396	807.909677619119	380.440627232950	599.676530451712	722.291150609844	290.048791267145	665.906221188825	732.356548964907	194.078499612025	595.145752651121	565.501515803700	45.854312627289	570.956896415746	738.600826164645	94.771646979540	600.824863325132	650.451543743408	37.205440642395	642.973753495535	858.434216408767	39.353444899389	628.004115749919	842.275438950219	38.102702807049	391.293071101779	917.729551556466	39.692107722886	312.397941079896	994.328199465354	110.835901401781	336.678802025929	1125.793244206423	72.263592379649	311.124555009766	588.905728051359	1092.789932548614	334.597924426145	560.859891703567	837.163013223317	386.284134830850	1061.274566262983	1148.175602813731	788.299293037969	1301.421278766966	1178.852122825482	699.711880964728	
23	32.414428571429	623.521515786219	993.774333693025	608.941137679137	737.635477944748	1419.821575126504	386.505802327949	884.787014845966	1351.955766068197	509.393627052664	859.094998590684	1427.340103983876	698.964648884299	769.376946577924	1483.423950445634	540.251720091168	873.348239146945	924.584671287182	663.326313004419	793.642123124580	956.700034661647	400.129525644685	886.286839545491	719.197837643177	616.606085567483	808.581617233230	607.749669773843	683.637954729272	863.669224791240	557.172364774297	588.455427565520	854.613320514419	462.605468457327	591.493732416154	872.351167872070	765.834880573399	413.698227787675	806.908127530174	637.632486606771	344.636575894344	912.495196462074	576.500381751447	395.125445428513	932.653648431398	511.870080104697	390.812006312192	916.802596199333	440.433919928753	375.899896930393	847.559116002979	314.826881565016	317.266615699154	933.772005693832	210.414025233494	364.479682197745	804.162638114338	379.966954654646	599.137390307585	718.097383498334	290.017293054560	665.423641672513	727.987504136966	193.837505763230	594.873010765053	560.854558905617	45.786297727920	570.849128307842	733.993731969232	94.815052114042	600.829990953694	645.780197587661	37.209818308390	642.912572352169	853.765050807539	39.363309912330	628.033823943682	842.026237886124	37.166340655296	391.678247544064	917.855168520610	38.953227436751	313.058411407820	994.242214900763	109.774543108179	338.056227013076	1125.817957420431	71.155439381360	313.014606857739	591.388758613467	1091.230147437035	331.636715734634	564.237866452468	835.522077411606	383.648858065549	1062.934512681509	1148.509667583418	783.368548865763	1301.725925306068	1183.162894105606	692.975165135327	
